<svg xmlns="http://www.w3.org/2000/svg" viewBox="270 250 560 560">
  <defs>
    <radialGradient id="g" cx="539.7" cy="500" fx="539.7" fy="500" r="269.9" gradientUnits="userSpaceOnUse">
      <stop offset="0" stop-color="#3562f6"/>
      <stop offset=".7" stop-color="#1d4aff"/>
      <stop offset="1" stop-color="#1c49ff"/>
    </radialGradient>
  </defs>
  <path fill="url(#g)" d="M433.6,321.6c87.4,107.6,98.4,134.7,98.4,143.9,0,2.9-1,5.3-2.9,7-1.8,1.7-4.3,2.6-7.2,2.4-9.2-.6-35.4-13.5-136.9-107.9-35.5-33-48.5-49.4-55.4-60.2-7.1-11.1-11.7-23.5-9.8-34.7,1.2-7,4.5-11.5,8.1-14.8,3.6-3.4,8.3-6.3,15.3-7,11.3-1.2,23.3,4.2,34,12.1,10.3,7.6,25.8,21.8,56.3,59.4ZM271.5,628.6c-10.2,8.4-18.3,18.8-19.9,30-1,7,.7,12.3,3.1,16.6,2.4,4.3,6,8.6,12.4,11.4,10.4,4.6,23.5,3.2,36-1,12.2-4.1,31.2-12.8,71.9-39.2,116.2-75.5,135-97.9,137.9-106.6.9-2.8.7-5.4-.6-7.6-1.2-2.2-3.3-3.8-6.1-4.5-8.9-2.2-37.9,1.9-163.4,60.6-43.9,20.5-61.3,32.1-71.3,40.3ZM814.1,355.3c8.5-10.2,14.5-21.9,13.9-33.2-.3-7.1-3-11.9-6.2-15.7-3.2-3.8-7.5-7.3-14.4-8.9-11-2.5-23.7,1.3-35.2,7.8-11.2,6.3-28.3,18.4-63.2,52-99.9,96-114.2,121.6-115.3,130.7-.4,2.9.4,5.4,2,7.3,1.6,1.9,3.9,3.1,6.9,3.2,9.2.5,36.8-9,149.1-90.3,39.3-28.4,54.2-43.1,62.4-53ZM700.9,702.5c8.3,4.9,17.7,7.7,26.5,5.5,5.5-1.4,9-4.4,11.9-7.3,2.7-3.1,5.3-6.9,6.2-12.5,1.5-8.9-2.1-18-7.7-25.9-5.4-7.6-16.2-18.4-44-39.9-79.4-61.2-96.3-69.2-106.3-68.4-2.3.2-4.2,1-5.4,2.3-1.2,1.3-1.9,3.3-1.9,5.6.1,10.1,9.5,26.2,77.2,100.2,23.8,26,35.4,35.7,43.5,40.5ZM546.1,344.4h0s0,0,0,0h0c-20,0-14,67.7-11.5,81.4,1.6,8.9,4.1,25.1,11.5,25.1h0s0,0,0,0h0c7.4,0,9.9-16.1,11.5-25.1,2.5-13.7,8.6-81.4-11.5-81.4ZM389.6,485.2h0s0,0,0,0h0s0,0,0,0c-6,19.1,60.5,33.4,74.3,35.1,9,1.1,25.2,3.5,27.3-3.5h0s0,0,0,0h0s0,0,0,0c2.2-7-12.5-14.2-20.5-18.4-12.3-6.4-75.2-32.3-81.1-13.2ZM787.6,532.2h0s0,0,0,0h0s0,0,0,0c3.2-23.5-108.3-31.2-131-31.3-14.8,0-41.6-.7-42.7,7.9h0s0,0,0,0h0s0,0,0,0c-1.2,8.6,24.8,15.1,39.1,18.9,21.9,5.9,131.5,27.9,134.6,4.4ZM562,750h0s0,0,0,0h0,0c23.7-.4,14.8-111.7,11.5-134.2-2.1-14.7-5.5-41.2-14.2-41.1h0s0,0,0,0h0,0c-8.7.1-11.2,26.7-12.9,41.5-2.6,22.6-8.1,134.1,15.6,133.8ZM630.2,550.9h0c-.3-.2-46.9-29.2-55-40.5-1.8-2.5-2.6-5.5-2.7-8.6,0-.4,0-.7,0-1.1.2-3.3,1.3-8.7,3-15.2l.6-2.3c6.6-24.2,19.8-60.5,19.9-60.8h0s0,0,0,0c0,0,0,0,0,0h0c-.1.3-19.5,33.7-33.7,54.3l-1.3,1.8c-3.9,5.5-7.3,9.9-9.8,12.2-.3.3-.7.6-1,.8-2.4,1.8-5.1,3.1-8.1,3.3-13.9,1.1-66.1-16-66.4-16.1h0s0,0,0,0c0,0,0,0,0,0h0c.3.2,46.9,29.2,55,40.5,1.8,2.5,2.6,5.5,2.7,8.6,0,.3,0,.6,0,.9,0,0,0,0,0,0-.2,3.3-1.3,8.7-3,15.1l-.6,2.3c-6.6,24.2-19.8,60.5-19.9,60.8h0s0,0,0,0c0,0,0,0,0,0h0c.1-.3,19.4-33.7,33.7-54.3l1.2-1.8c3.9-5.5,7.4-9.9,9.8-12.2.3-.3.7-.6,1-.8,2.4-1.8,5.1-3.1,8.1-3.3,13.9-1.1,66.1,16,66.4,16.1h0s0,0,0,0c0,0,0,0,0,0Z"/>
</svg>
